<svg width="510" height="145" viewBox="0 0 510 145" fill="none" xmlns="http://www.w3.org/2000/svg">
<g clip-path="url(#clip0_40_2)">
<path fill-rule="evenodd" clip-rule="evenodd" d="M502.435 30.6457L486.433 0.94198H478.105V44.9638H485.67V15.3229L501.734 44.9638H510V0.94198H502.435V30.6457ZM437.541 22.9529C437.541 14.0826 444.405 7.22184 453.013 7.22184C461.622 7.22184 468.549 14.0826 468.549 22.9529C468.549 31.8232 461.622 38.6212 453.013 38.6212C444.405 38.6212 437.541 31.8075 437.541 22.9529ZM430.272 22.9529C430.272 35.9208 440.452 45.9058 453.029 45.9058C465.606 45.9058 475.786 35.9208 475.786 22.9529C475.786 9.98498 465.606 0 453.029 0C440.452 0 430.272 9.98498 430.272 22.9529ZM420.263 44.9638H427.953V0.94198H420.263V44.9638ZM417.928 44.9638V37.6321H394.874V0.94198H387.186V44.9638H417.912H417.928ZM377.192 44.9638H384.882V0.94198H377.192V44.9638ZM353.329 44.9638H361.362L374.873 0.94198H366.779L357.346 33.6915L347.975 0.94198H339.881L353.329 44.9638ZM323.069 10.4403L328.658 23.6437L312.936 34.1468L323.069 10.4246V10.4403ZM327.132 0.92628H319.116L300.545 44.9481H308.282L331.616 30.7399L337.608 44.9481H345.702L327.132 0.92628ZM299.845 13.7292C299.841 17.2412 297.103 19.2478 293.79 19.2478H282.318V8.27372H293.79C297.103 8.27372 299.841 10.0922 299.845 13.7292ZM293.619 26.5952C301.075 26.5952 307.535 21.6655 307.535 13.7372C307.535 5.80887 301.075 0.94198 293.619 0.94198H274.644V44.9638H282.318V26.5952H293.604H293.619ZM232.803 10.456L238.391 23.6594L222.67 34.1625L232.803 10.4403V10.456ZM236.866 0.94198H228.85L210.279 44.9638H218.015L241.349 30.7556L247.342 44.9638H255.436L236.866 0.94198ZM192.581 38.6369C183.786 38.6369 177.155 31.8232 177.155 22.9686C177.155 14.114 183.786 7.23754 192.581 7.23754C198.403 7.23754 202.948 10.1734 205.5 14.7577L210.855 9.357C206.73 3.61092 200.208 0.0313997 192.581 0.0313997C180.004 0.0313997 169.824 10.0164 169.824 22.9843C169.824 35.9522 180.004 45.9372 192.581 45.9372C200.083 45.9372 206.73 42.2949 210.855 36.6116L205.5 31.2109C202.948 35.7952 198.403 38.6683 192.581 38.6683V38.6369ZM151.55 38.6683C142.754 38.6683 136.123 31.8546 136.123 23C136.123 14.1454 142.754 7.26894 151.55 7.26894C157.371 7.26894 161.916 10.2048 164.469 14.7891L169.824 9.3884C165.698 3.64232 159.177 0.0627985 151.55 0.0627985C138.972 0.0627985 128.792 10.0478 128.792 23.0157C128.792 35.9836 138.972 45.9686 151.55 45.9686C159.052 45.9686 165.698 42.3263 169.824 36.643L164.469 31.2423C161.916 35.8266 157.371 38.6997 151.55 38.6997V38.6683ZM88.8032 23.0314C88.8032 14.1611 95.6678 7.30034 104.276 7.30034C112.883 7.30034 119.81 14.1611 119.81 23.0314C119.81 31.9017 112.883 38.6997 104.276 38.6997C95.6678 38.6997 88.8032 31.886 88.8032 23.0314ZM81.5341 23.0314C81.5341 35.9993 91.714 45.9843 104.291 45.9843C116.869 45.9843 127.049 35.9993 127.049 23.0314C127.049 10.0635 116.869 0.0784988 104.291 0.0784988C91.714 0.0784988 81.5341 10.0635 81.5341 23.0314ZM63.2597 38.6997C54.4649 38.6997 47.8339 31.886 47.8339 23.0314C47.8339 14.1768 54.4649 7.30034 63.2597 7.30034C69.0813 7.30034 73.6266 10.2362 76.1794 14.8205L81.5341 9.41979C77.409 3.67372 70.8869 0.0941982 63.2597 0.0941982C50.6824 0.0941982 40.5024 10.0792 40.5024 23.0471C40.5024 36.015 50.6824 46 63.2597 46C70.7624 46 77.409 42.3577 81.5341 36.6744L76.1794 31.2737C73.611 35.858 69.0813 38.7311 63.2597 38.7311V38.6997ZM30.4935 45.0737H38.1831V0.94198H30.4935V44.9638V45.0737ZM20.4847 13.8549C20.4808 17.4921 17.7427 19.3734 14.4295 19.3734H7.67398V8.39932H14.4295C17.7427 8.39932 20.4808 10.2179 20.4847 13.8549ZM20.4847 32.2942C20.4847 35.9365 17.7451 37.7577 14.4295 37.7577H7.67398V26.7208H14.4295C17.7451 26.7208 20.4847 28.6519 20.4847 32.2942ZM0 45.0894H14.2584C21.7143 45.0894 28.1742 40.2225 28.1742 32.2942C28.1742 28.3536 26.4931 25.2451 23.9247 23.1413C26.6021 21.0218 28.1742 17.9133 28.1742 13.8628C28.1742 5.93447 21.7143 1.06758 14.2584 1.06758H0V45.0894ZM372.198 114.406V133.35H371.933L358.988 114.406H353.417V144.516H359.766V125.572H359.983L373.038 144.516H378.516V114.406H372.198ZM341.358 134.849C340.736 136.301 339.848 137.41 338.698 138.175C337.546 138.925 336.223 139.315 334.683 139.315C333.143 139.315 331.804 138.941 330.668 138.175C329.517 137.426 328.645 136.317 328.008 134.849C327.385 133.396 327.058 131.601 327.058 129.461C327.058 127.321 327.369 125.541 328.008 124.089C328.645 122.621 329.517 121.527 330.668 120.762C331.804 120.013 333.143 119.622 334.683 119.622C336.223 119.622 337.546 119.997 338.698 120.762C339.833 121.512 340.72 122.621 341.358 124.089C341.981 125.541 342.308 127.337 342.308 129.461C342.308 131.585 341.996 133.381 341.358 134.849ZM346.882 121.09C345.653 118.779 343.972 117.03 341.84 115.812C339.724 114.593 337.328 114 334.683 114C332.038 114 329.625 114.609 327.51 115.812C325.393 117.03 323.713 118.779 322.483 121.09C321.254 123.402 320.632 126.181 320.632 129.477C320.632 132.772 321.254 135.536 322.483 137.847C323.713 140.159 325.393 141.908 327.51 143.126C329.625 144.344 332.022 144.953 334.683 144.953C337.343 144.953 339.709 144.344 341.84 143.142C343.972 141.923 345.653 140.174 346.882 137.879C348.111 135.567 348.733 132.787 348.733 129.492C348.733 126.197 348.111 123.417 346.882 121.106V121.09ZM309.584 144.547H315.933V114.437H309.584V144.547ZM290.057 119.685V144.547H296.327V119.685H305.508V114.437H280.861V119.685H290.041H290.057ZM267.557 121.309L263.862 132.709H271.477L267.79 121.309H267.557ZM260.025 144.547L262.253 137.676H273.083L275.305 144.547H282.105L271.757 114.437H263.588L253.226 144.547H260.025ZM226.369 114.422L236.732 144.531H244.901L255.248 114.422H248.216L240.949 137.301H240.668L233.418 114.422H226.369ZM217.624 134.864C216.986 136.317 216.114 137.426 214.963 138.191C213.827 138.941 212.489 139.331 210.949 139.331C209.408 139.331 208.086 138.956 206.934 138.191C205.798 137.441 204.911 136.332 204.274 134.864C203.651 133.412 203.325 131.616 203.325 129.477C203.325 127.337 203.635 125.557 204.274 124.104C204.895 122.636 205.783 121.543 206.934 120.778C208.086 120.028 209.408 119.638 210.949 119.638C212.489 119.638 213.827 120.013 214.963 120.778C216.114 121.527 216.986 122.636 217.624 124.104C218.246 125.557 218.573 127.353 218.573 129.477C218.573 131.601 218.262 133.396 217.624 134.864ZM223.148 121.106C221.919 118.794 220.238 117.045 218.107 115.827C215.99 114.609 213.594 114.016 210.949 114.016C208.303 114.016 205.892 114.625 203.776 115.827C201.659 117.045 199.979 118.794 198.75 121.106C197.52 123.417 196.898 126.197 196.898 129.492C196.898 132.787 197.52 135.552 198.75 137.863C199.979 140.174 201.659 141.923 203.776 143.142C205.892 144.36 208.288 144.969 210.949 144.969C213.609 144.969 215.99 144.36 218.107 143.157C220.238 141.939 221.919 140.19 223.148 137.894C224.377 135.583 225 132.803 225 129.508C225 126.213 224.377 123.433 223.148 121.121V121.106ZM185.881 114.453V133.396H185.617L172.671 114.453H167.101V144.563H173.449V125.619H173.667L186.722 144.563H192.199V114.453H185.881ZM155.555 114.453V133.396H155.29L142.344 114.453H136.774V144.563H143.122V125.619H143.34L156.395 144.563H161.872V114.453H155.555ZM125.197 144.563H131.545V114.453H125.197V144.563ZM104.564 114.453V133.396H104.3L91.3536 114.453H85.7832V144.563H92.1317V125.619H92.3495L105.405 144.563H110.881V114.453H104.564ZM80.7884 144.563V139.315H66.8621V132.131H79.6992V126.884H66.8621V119.716H80.7417V114.469H60.5291V144.578H80.8039L80.7884 144.563ZM40.1298 144.563V134.802H45.4669C47.7698 134.802 49.7304 134.38 51.3642 133.521C52.9824 132.662 54.2272 131.476 55.0986 129.945C55.9544 128.415 56.3901 126.65 56.3901 124.651C56.3901 122.652 55.97 120.887 55.1297 119.357C54.2895 117.826 53.0602 116.624 51.4575 115.749C49.8549 114.875 47.9098 114.453 45.638 114.453H33.7968V144.563H40.1298ZM40.1298 119.653V129.695H44.4399C45.6537 129.695 46.665 129.477 47.4586 129.055C48.2522 128.633 48.8435 128.04 49.248 127.275C49.637 126.509 49.8394 125.65 49.8394 124.651C49.8394 123.651 49.637 122.777 49.248 122.027C48.859 121.278 48.2677 120.7 47.4586 120.278C46.6495 119.856 45.638 119.653 44.4088 119.653H40.1298ZM21.7222 134.896C21.0998 136.348 20.2128 137.457 19.0614 138.222C17.9255 138.972 16.5874 139.362 15.0469 139.362C13.5064 139.362 12.1683 138.987 11.0323 138.222C9.89649 137.457 9.00955 136.364 8.37159 134.896C7.74918 133.443 7.42243 131.647 7.42243 129.508C7.42243 127.368 7.73362 125.588 8.37159 124.136C8.99399 122.668 9.88093 121.574 11.0323 120.809C12.1683 120.059 13.5064 119.669 15.0469 119.669C16.5874 119.669 17.9255 120.044 19.0614 120.809C20.1973 121.559 21.0842 122.668 21.7222 124.136C22.3446 125.588 22.6713 127.384 22.6713 129.508C22.6713 131.632 22.3601 133.428 21.7222 134.896ZM27.2461 121.137C26.0168 118.826 24.3363 117.077 22.2045 115.858C20.0728 114.64 17.6921 114.047 15.0469 114.047C12.4017 114.047 9.98982 114.656 7.87366 115.858C5.75749 117.077 4.077 118.826 2.84775 121.137C1.6185 123.448 0.996094 126.228 0.996094 129.523C0.996094 132.819 1.60294 135.583 2.84775 137.894C4.077 140.206 5.75749 141.955 7.87366 143.173C9.98982 144.391 12.3861 145 15.0469 145C17.7077 145 20.0728 144.391 22.2045 143.188C24.3207 141.97 26.0012 140.221 27.2461 137.925C28.4752 135.614 29.0977 132.834 29.0977 129.539C29.0977 126.244 28.4752 123.464 27.2461 121.153V121.137ZM261.577 89.8465C261.673 89.8062 261.766 89.7647 261.859 89.722C263.495 88.9556 264.725 87.8607 265.597 86.4218C266.454 84.9828 266.89 83.2624 266.89 81.2603C266.89 79.2583 266.47 77.5378 265.613 76.052C264.772 74.5661 263.542 73.4243 261.938 72.6266C260.333 71.8133 258.387 71.4067 256.128 71.4067H244.275V101.562H250.614V90.8638H255.243L260.941 101.562H267.949L261.577 89.8465ZM250.614 76.615V85.7336H254.928C256.144 85.7336 257.141 85.5616 257.95 85.2331C258.744 84.9046 259.352 84.4041 259.741 83.7316C260.131 83.059 260.333 82.2457 260.333 81.2447C260.333 80.2437 260.131 79.3991 259.741 78.7109C259.336 78.0227 258.744 77.5066 257.935 77.1468C257.141 76.8027 256.113 76.615 254.897 76.615H250.614ZM229.526 95.2119C230.678 94.4455 231.551 93.335 232.189 91.8804C232.828 90.4102 233.14 88.6271 233.14 86.4844C233.14 84.3416 232.812 82.5585 232.189 81.0883C231.551 79.6181 230.678 78.5076 229.526 77.7568C228.389 77.0061 227.05 76.6307 225.508 76.6307C223.966 76.6307 222.642 77.0061 221.489 77.7568C220.337 78.5232 219.449 79.6337 218.826 81.0883C218.187 82.5585 217.877 84.3416 217.877 86.4844C217.877 88.6271 218.203 90.4102 218.826 91.8804C219.464 93.3507 220.353 94.4612 221.489 95.2119C222.642 95.9783 223.966 96.3537 225.508 96.3537C227.05 96.3537 228.389 95.9627 229.526 95.2119ZM232.673 72.8143C234.806 74.0343 236.488 75.7861 237.719 78.1009C238.949 80.4157 239.572 83.1998 239.572 86.5C239.572 89.8002 238.949 92.5843 237.719 94.8991C236.488 97.2139 234.79 98.9657 232.673 100.186C230.539 101.39 228.171 102 225.508 102C222.844 102 220.446 101.39 218.328 100.17C216.21 98.9501 214.528 97.1983 213.298 94.8835C212.066 92.5686 211.444 89.8002 211.444 86.5C211.444 83.1998 212.066 80.4157 213.298 78.1009C214.528 75.7861 216.21 74.0187 218.328 72.8143C220.446 71.61 222.86 71 225.508 71C228.155 71 230.539 71.5943 232.673 72.8143ZM194.172 89.1277V101.578H187.816V71.4223H207.705V76.6776H194.172V83.8724H206.382V89.1277H194.172ZM173.255 96.3224V101.578H152.976V71.4223H173.208V76.6776H159.315V83.8724H172.164V89.1277H159.315V96.3224H173.255ZM144.177 73.8779C145.329 74.8163 146.263 75.9581 146.996 77.3189L146.98 77.3032C147.712 78.664 148.179 80.2124 148.381 81.9642H141.964C141.856 81.1196 141.607 80.3845 141.248 79.7275C140.889 79.0706 140.422 78.5232 139.862 78.054C139.286 77.5848 138.631 77.225 137.899 76.9904C137.167 76.7558 136.357 76.6307 135.501 76.6307C133.944 76.6307 132.588 77.0061 131.436 77.7881C130.283 78.5701 129.396 79.6806 128.757 81.1509C128.119 82.6211 127.807 84.3416 127.807 86.4844C127.807 88.6271 128.135 90.4415 128.773 91.8961C129.412 93.3663 130.315 94.4612 131.467 95.2119C132.62 95.9627 133.959 96.3381 135.47 96.3381C136.326 96.3381 137.105 96.2129 137.837 95.9939C138.57 95.775 139.223 95.4465 139.784 95.0086C140.361 94.5706 140.828 94.0388 141.201 93.4132C141.575 92.7876 141.84 92.0681 141.98 91.2704L148.397 91.3017C148.226 92.6937 147.805 94.0232 147.151 95.3058C146.497 96.5883 145.609 97.7301 144.503 98.7311C143.398 99.7477 142.074 100.545 140.547 101.124C139.021 101.703 137.292 102 135.361 102C132.682 102 130.283 101.39 128.18 100.17C126.079 98.9501 124.412 97.1983 123.197 94.8835C121.982 92.5686 121.375 89.8002 121.375 86.5C121.375 83.1998 121.998 80.4157 123.228 78.1009C124.458 75.7861 126.14 74.0187 128.243 72.8143C130.346 71.61 132.728 71 135.361 71C137.105 71 138.709 71.2502 140.204 71.7351C141.699 72.22 143.023 72.9395 144.177 73.8779ZM101.416 89.7064L105.115 78.2886H105.348L109.038 89.7064H101.416ZM99.8056 94.6801L97.5762 101.562H90.77L101.143 71.4067H109.319L119.677 101.562H112.87L110.646 94.6801H99.8056ZM75.4756 91.7866V101.562H69.121V71.4067H80.9735C83.2474 71.4067 85.1943 71.829 86.7985 72.7048C88.4027 73.5807 89.6331 74.7851 90.4741 76.3179C91.3307 77.8507 91.7513 79.6181 91.7513 81.6201C91.7513 83.6221 91.3152 85.3895 90.4586 86.9223C89.5864 88.4551 88.356 89.6438 86.7206 90.504C85.0852 91.3643 83.1228 91.7866 80.8178 91.7866H75.4756ZM75.4756 76.615V86.6721H79.7898C81.0046 86.6721 82.017 86.4531 82.8114 86.0308C83.6056 85.6085 84.213 85.0141 84.6024 84.2477C84.9918 83.4813 85.1943 82.6211 85.1943 81.6201C85.1943 80.6191 84.9918 79.7432 84.6024 78.9924C84.213 78.2417 83.6056 77.663 82.8114 77.2407C82.0014 76.8184 80.9891 76.615 79.7586 76.615H75.4756ZM63.0313 75.3325C63.9502 76.6932 64.433 78.273 64.4642 80.0716L64.433 80.0873H58.3433C58.2187 78.8986 57.7202 77.9758 56.8325 77.3189C55.9292 76.662 54.7299 76.3335 53.2036 76.3335C52.1757 76.3335 51.3035 76.4743 50.587 76.7714C49.8706 77.0686 49.3255 77.4596 48.9516 77.9758C48.5779 78.4763 48.3909 79.0706 48.3909 79.7119C48.3754 80.2437 48.4845 80.7129 48.7336 81.1196C48.9828 81.5106 49.3255 81.8703 49.7616 82.1519C50.1976 82.449 50.7116 82.6993 51.2879 82.9026C51.8641 83.106 52.4872 83.2936 53.1413 83.4344L55.8357 84.0757C57.144 84.3572 58.3588 84.7639 59.4491 85.2487C60.5549 85.7492 61.4894 86.3436 62.2993 87.0631C63.0936 87.7825 63.7166 88.6271 64.1683 89.5969C64.62 90.5822 64.8536 91.6927 64.8536 92.944C64.8379 94.7896 64.3708 96.385 63.4518 97.7301C62.5329 99.0908 61.1934 100.139 59.4647 100.874C57.7202 101.609 55.6022 101.984 53.188 101.984C50.7739 101.984 48.6557 101.609 46.8646 100.858C45.0735 100.107 43.6718 99.0126 42.675 97.5424C41.6783 96.0722 41.1486 94.2578 41.1019 92.0838H47.254C47.3163 93.1004 47.6122 93.945 48.1262 94.6176C48.6402 95.2901 49.3255 95.7906 50.1976 96.1347C51.0698 96.4632 52.0666 96.6352 53.1413 96.6352C54.216 96.6352 55.1504 96.4788 55.9447 96.166C56.7391 95.8532 57.3621 95.3996 57.7981 94.8522C58.2342 94.3047 58.4523 93.6478 58.4523 92.9284C58.4523 92.2558 58.2499 91.6927 57.8605 91.2235C57.4711 90.7699 56.8948 90.3789 56.1317 90.0505C55.3841 89.722 54.4496 89.4248 53.3593 89.1589L50.0886 88.33C47.5499 87.72 45.5563 86.7503 44.0923 85.4364C42.6282 84.1226 41.9118 82.3396 41.9118 80.1186C41.9118 78.2886 42.3946 76.6932 43.3759 75.3325C44.3571 73.9717 45.7121 72.9082 47.4253 72.1418C49.1541 71.3754 51.0698 71 53.297 71C55.5243 71 57.4711 71.3754 59.1376 72.1418C60.8041 72.9082 62.0968 73.9717 63.0313 75.3325ZM10.6462 89.7064L14.3444 78.2886H14.578L18.2686 89.7064H10.6462ZM9.03524 94.6801L6.80619 101.562H0L10.3728 71.4067H18.5496L28.9068 101.562H22.1006L19.8763 94.6801H9.03524Z" fill="#B1D5CE"/>
</g>
<defs>
<clipPath id="clip0_40_2">
<rect width="510" height="145" fill="white"/>
</clipPath>
</defs>
</svg>
