<svg width="1033" height="1131" viewBox="0 0 1033 1131" fill="none" xmlns="http://www.w3.org/2000/svg">
<g clip-path="url(#clip0_30_6)">
<g opacity="0.4">
<path d="M1035.62 1130.72C1347.86 1130.72 1600.98 877.6 1600.98 565.36C1600.98 253.12 1347.86 0 1035.62 0C723.382 0 470.262 253.12 470.262 565.36C470.262 877.6 723.382 1130.72 1035.62 1130.72Z" fill="#B1D6CE" fill-opacity="0.5"/>
<path d="M470.26 60.0996C285.51 153.1 158.75 344.42 158.75 565.36C158.75 786.3 285.51 977.62 470.26 1070.62V60.0996Z" fill="#B1D6CE" fill-opacity="0.5"/>
<path d="M158.75 172.6C60.48 274.31 0 412.76 0 565.36C0 717.96 60.48 856.41 158.75 958.13V172.6Z" fill="#B1D6CE" fill-opacity="0.5"/>
</g>
</g>
<defs>
<clipPath id="clip0_30_6">
<rect width="1033" height="1131" fill="white"/>
</clipPath>
</defs>
</svg>
