<svg width="269" height="65" viewBox="0 0 269 65" fill="none" xmlns="http://www.w3.org/2000/svg">
<path d="M58.5911 0C40.9241 0 26.6028 14.3694 26.6028 32.0957C26.6028 49.822 40.9241 64.1913 58.5911 64.1913V0Z" fill="#B1D5CE"/>
<path d="M26.6087 3.41113C16.1566 8.68796 8.98389 19.5495 8.98389 32.0956C8.98389 44.6416 16.1566 55.4972 26.6087 60.78V3.41113Z" fill="#B1D5CE"/>
<path d="M8.98392 9.79883C3.42388 15.5707 0 23.4316 0 32.0955C0 40.7594 3.42388 48.6203 8.98392 54.3923V9.79883Z" fill="#B1D5CE"/>
<path d="M266.003 16.9352L259.817 5.51216H256.598V22.4415H259.523V11.0426L265.732 22.4415H268.928V5.51216H266.003V16.9352ZM240.917 13.9768C240.917 10.5656 243.57 7.92718 246.898 7.92718C250.226 7.92718 252.903 10.5656 252.903 13.9768C252.903 17.388 250.226 20.0023 246.898 20.0023C243.57 20.0023 240.917 17.382 240.917 13.9768ZM238.107 13.9768C238.107 18.9638 242.042 22.8037 246.904 22.8037C251.766 22.8037 255.701 18.9638 255.701 13.9768C255.701 8.98979 251.766 5.1499 246.904 5.1499C242.042 5.1499 238.107 8.98979 238.107 13.9768ZM234.238 22.4415H237.21V5.51216H234.238V22.4415ZM233.335 22.4415V19.6219H224.423V5.51216H221.451V22.4415H233.329H233.335ZM217.588 22.4415H220.56V5.51216H217.588V22.4415ZM208.363 22.4415H211.468L216.691 5.51216H213.562L209.915 18.1065L206.293 5.51216H203.164L208.363 22.4415ZM196.665 9.16488L198.825 14.2425L192.748 18.2816L196.665 9.15884V9.16488ZM198.242 5.50612H195.137L187.958 22.4354H190.949L199.969 16.9714L202.285 22.4354H205.414L198.236 5.50612H198.242ZM187.687 10.4267C187.687 11.7791 186.628 12.552 185.347 12.552H180.912V8.3317H185.347C186.628 8.3317 187.687 9.03205 187.687 10.4328M185.28 15.3775C188.163 15.3775 190.66 13.4817 190.66 10.4328C190.66 7.3838 188.163 5.51216 185.28 5.51216H177.945V22.4415H180.912V15.3775H185.274H185.28ZM161.771 9.17092L163.931 14.2485L157.853 18.2876L161.771 9.16488V9.17092ZM163.347 5.51216H160.242L153.063 22.4415H156.054L165.074 16.9775L167.391 22.4415H170.52L163.341 5.51216H163.347ZM146.222 20.0083C142.822 20.0083 140.258 17.388 140.258 13.9829C140.258 10.5777 142.822 7.93322 146.222 7.93322C148.472 7.93322 150.229 9.06224 151.216 10.8252L153.286 8.74829C151.691 6.53854 149.17 5.16198 146.222 5.16198C141.36 5.16198 137.424 9.00187 137.424 13.9889C137.424 18.9759 141.36 22.8158 146.222 22.8158C149.122 22.8158 151.691 21.4151 153.286 19.2295L151.216 17.1526C150.229 18.9155 148.472 20.0204 146.222 20.0204M130.36 20.0204C126.96 20.0204 124.397 17.4001 124.397 13.9949C124.397 10.5897 126.96 7.94529 130.36 7.94529C132.61 7.94529 134.367 9.07432 135.354 10.8373L137.424 8.76036C135.83 6.55062 133.308 5.17405 130.36 5.17405C125.498 5.17405 121.563 9.01394 121.563 14.001C121.563 18.988 125.498 22.8279 130.36 22.8279C133.26 22.8279 135.83 21.4272 137.424 19.2416L135.354 17.1646C134.367 18.9276 132.61 20.0325 130.36 20.0325M106.104 14.007C106.104 10.5958 108.758 7.95737 112.085 7.95737C115.413 7.95737 118.091 10.5958 118.091 14.007C118.091 17.4182 115.413 20.0325 112.085 20.0325C108.758 20.0325 106.104 17.4122 106.104 14.007ZM103.294 14.007C103.294 18.994 107.229 22.8339 112.091 22.8339C116.953 22.8339 120.889 18.994 120.889 14.007C120.889 9.01998 116.953 5.18009 112.091 5.18009C107.229 5.18009 103.294 9.01998 103.294 14.007ZM96.2294 20.0325C92.8296 20.0325 90.2662 17.4122 90.2662 14.007C90.2662 10.6018 92.8296 7.95737 96.2294 7.95737C98.4799 7.95737 100.237 9.08639 101.224 10.8494L103.294 8.77244C101.699 6.56269 99.178 5.18613 96.2294 5.18613C91.3674 5.18613 87.4321 9.02602 87.4321 14.013C87.4321 19.0001 91.3674 22.84 96.2294 22.84C99.1298 22.84 101.699 21.4392 103.294 19.2536L101.224 17.1767C100.231 18.9397 98.4799 20.0446 96.2294 20.0446M83.5629 22.4837H86.5355V5.51216H83.5629V22.4415V22.4837ZM79.6937 10.475C79.6937 11.8757 78.6347 12.6003 77.353 12.6003H74.7415V8.38H77.353C78.6347 8.38 79.6937 9.08035 79.6937 10.4811M79.6937 17.5692C79.6937 18.9699 78.6347 19.6702 77.353 19.6702H74.7415V15.4258H77.353C78.6347 15.4258 79.6937 16.1685 79.6937 17.5692ZM71.7749 22.4898H77.2868C80.1691 22.4898 82.6663 20.6181 82.6663 17.5692C82.6663 16.0537 82.0164 14.8583 81.0236 14.0493C82.0586 13.2342 82.6663 12.0388 82.6663 10.4811C82.6663 7.4321 80.1691 5.56046 77.2868 5.56046H71.7749V22.4898Z" fill="#B1D5CE"/>
<path d="M215.668 49.2302V56.5538H215.566L210.56 49.2302H208.405V60.8706H210.86V53.5471H210.945L215.993 60.8706H218.111V49.2302H215.668ZM203.742 57.1334C203.501 57.6949 203.158 58.1235 202.713 58.4194C202.268 58.7092 201.756 58.8601 201.16 58.8601C200.565 58.8601 200.047 58.7152 199.608 58.4194C199.163 58.1296 198.826 57.7009 198.579 57.1334C198.338 56.5719 198.212 55.8776 198.212 55.0504C198.212 54.2233 198.332 53.535 198.579 52.9735C198.826 52.406 199.163 51.9833 199.608 51.6875C200.047 51.3977 200.565 51.2468 201.16 51.2468C201.756 51.2468 202.268 51.3917 202.713 51.6875C203.152 51.9773 203.495 52.406 203.742 52.9735C203.983 53.535 204.109 54.2293 204.109 55.0504C204.109 55.8715 203.989 56.5659 203.742 57.1334ZM205.878 51.8143C205.403 50.9207 204.753 50.2445 203.928 49.7736C203.11 49.3027 202.183 49.0732 201.16 49.0732C200.137 49.0732 199.205 49.3087 198.386 49.7736C197.568 50.2445 196.918 50.9207 196.443 51.8143C195.967 52.7079 195.727 53.7825 195.727 55.0565C195.727 56.3304 195.967 57.399 196.443 58.2926C196.918 59.1862 197.568 59.8624 198.386 60.3333C199.205 60.8042 200.131 61.0397 201.16 61.0397C202.189 61.0397 203.104 60.8042 203.928 60.3393C204.753 59.8684 205.403 59.1922 205.878 58.3047C206.353 57.4111 206.594 56.3364 206.594 55.0625C206.594 53.7886 206.353 52.7139 205.878 51.8203M191.454 60.8827H193.909V49.2423H191.454V60.8827ZM183.903 51.2709V60.8827H186.328V51.2709H189.878V49.2423H180.346V51.2709H183.897H183.903ZM172.127 58.2262H178.337V56.3062H172.127V58.2262ZM175.202 51.8988H175.292L178.198 60.8827H180.828L176.826 49.2423H173.667L169.66 60.8827H172.289L175.202 51.8988ZM159.274 49.2363L163.281 60.8767H166.44L170.442 49.2363H167.722L164.912 58.0813H164.804L161.999 49.2363H159.274ZM155.892 57.1394C155.645 57.7009 155.308 58.1296 154.863 58.4254C154.424 58.7152 153.906 58.8662 153.31 58.8662C152.715 58.8662 152.203 58.7213 151.758 58.4254C151.319 58.1356 150.976 57.707 150.729 57.1394C150.488 56.5779 150.362 55.8836 150.362 55.0565C150.362 54.2293 150.482 53.541 150.729 52.9795C150.97 52.412 151.313 51.9894 151.758 51.6935C152.203 51.4037 152.715 51.2528 153.31 51.2528C153.906 51.2528 154.424 51.3977 154.863 51.6935C155.308 51.9833 155.645 52.412 155.892 52.9795C156.133 53.541 156.259 54.2354 156.259 55.0565C156.259 55.8776 156.139 56.5719 155.892 57.1394ZM158.028 51.8203C157.553 50.9268 156.903 50.2506 156.078 49.7796C155.26 49.3087 154.333 49.0793 153.31 49.0793C152.287 49.0793 151.355 49.3147 150.536 49.7796C149.718 50.2506 149.068 50.9268 148.593 51.8203C148.117 52.7139 147.877 53.7886 147.877 55.0625C147.877 56.3364 148.117 57.4051 148.593 58.2986C149.068 59.1922 149.718 59.8684 150.536 60.3393C151.355 60.8103 152.281 61.0457 153.31 61.0457C154.339 61.0457 155.26 60.8103 156.078 60.3454C156.903 59.8744 157.553 59.1982 158.028 58.3107C158.503 57.4172 158.744 56.3425 158.744 55.0685C158.744 53.7946 158.503 52.7199 158.028 51.8264M143.616 49.2483V56.5719H143.514L138.508 49.2483H136.353V60.8887H138.809V53.5652H138.893L143.941 60.8887H146.059V49.2483H143.616ZM131.889 49.2483V56.5719H131.786L126.78 49.2483H124.626V60.8887H127.081V53.5652H127.165L132.214 60.8887H134.332V49.2483H131.889ZM120.149 60.8887H122.604V49.2483H120.149V60.8887ZM112.17 49.2483V56.5719H112.067L107.061 49.2483H104.907V60.8887H107.362V53.5652H107.446L112.495 60.8887H114.613V49.2483H112.17ZM102.975 60.8887V58.8601H97.5896V56.0829H102.554V54.0542H97.5896V51.283H102.957V49.2544H95.1406V60.8948H102.981L102.975 60.8887ZM87.2518 60.8887V51.2588H88.9066C89.382 51.2588 89.7731 51.3373 90.086 51.5003C90.3989 51.6634 90.6276 51.8867 90.778 52.1765C90.9284 52.4664 91.0067 52.8045 91.0067 53.1909C91.0067 53.5773 90.9284 53.9093 90.778 54.2052C90.6215 54.501 90.3929 54.7304 90.086 54.8935C89.7791 55.0565 89.388 55.141 88.9186 55.141H86.3974V57.1153H89.3158C90.2063 57.1153 90.9645 56.9523 91.5964 56.6202C92.2222 56.2881 92.7035 55.8293 93.0405 55.2376C93.3715 54.6459 93.54 53.9637 93.54 53.1909C93.54 52.4181 93.3775 51.7358 93.0526 51.1441C92.7276 50.5524 92.2522 50.0876 91.6325 49.7495C91.0127 49.4113 90.2605 49.2483 89.382 49.2483H84.8028V60.8887H87.2578H87.2518ZM80.1333 57.1515C79.8926 57.713 79.5496 58.1417 79.1043 58.4375C78.6651 58.7273 78.1476 58.8782 77.5518 58.8782C76.9561 58.8782 76.4386 58.7333 75.9994 58.4375C75.5601 58.1417 75.2171 57.719 74.9704 57.1515C74.7297 56.59 74.6033 55.8957 74.6033 55.0685C74.6033 54.2414 74.7237 53.5531 74.9704 52.9916C75.2111 52.4241 75.5541 52.0015 75.9994 51.7056C76.4386 51.4158 76.9561 51.2649 77.5518 51.2649C78.1476 51.2649 78.6651 51.4098 79.1043 51.7056C79.5436 51.9954 79.8866 52.4241 80.1333 52.9916C80.374 53.5531 80.5003 54.2474 80.5003 55.0685C80.5003 55.8896 80.38 56.584 80.1333 57.1515ZM82.2694 51.8324C81.7941 50.9388 81.1442 50.2626 80.3198 49.7917C79.4954 49.3208 78.5748 49.0914 77.5518 49.0914C76.5289 49.0914 75.5962 49.3268 74.7778 49.7917C73.9595 50.2626 73.3096 50.9388 72.8342 51.8324C72.3589 52.726 72.1182 53.8007 72.1182 55.0746C72.1182 56.3485 72.3528 57.4172 72.8342 58.3107C73.3096 59.2043 73.9595 59.8805 74.7778 60.3514C75.5962 60.8223 76.5229 61.0578 77.5518 61.0578C78.5808 61.0578 79.4954 60.8223 80.3198 60.3574C81.1382 59.8865 81.7881 59.2103 82.2694 58.3228C82.7448 57.4292 82.9855 56.3545 82.9855 55.0806C82.9855 53.8067 82.7448 52.732 82.2694 51.8384" fill="#B1D5CE"/>
<path d="M169.671 38.9243L172.494 44.2193H175.201L172.319 38.9243H169.671ZM168.504 44.2193V34.5894H170.159C170.628 34.5894 171.025 34.6618 171.332 34.7946C171.645 34.9335 171.874 35.1327 172.03 35.3984C172.181 35.664 172.259 35.9901 172.259 36.3765C172.259 36.7629 172.181 37.0768 172.03 37.3364C171.88 37.5961 171.645 37.7893 171.338 37.9161C171.025 38.0428 170.64 38.1093 170.171 38.1093H167.505V40.0896H170.568C171.459 40.0896 172.217 39.9386 172.849 39.6488C173.48 39.353 173.956 38.9304 174.293 38.3749C174.624 37.8195 174.792 37.1553 174.792 36.3825C174.792 35.6097 174.63 34.9456 174.299 34.372C173.974 33.7984 173.498 33.3577 172.879 33.0498C172.259 32.7358 171.507 32.5789 170.634 32.5789H166.055V44.2193H168.51H168.504ZM161.385 40.482C161.139 41.0435 160.802 41.4722 160.357 41.768C159.917 42.0578 159.4 42.2088 158.804 42.2088C158.208 42.2088 157.697 42.0639 157.252 41.768C156.812 41.4782 156.469 41.0496 156.223 40.482C155.982 39.9145 155.856 39.2262 155.856 38.3991C155.856 37.5719 155.976 36.8836 156.223 36.3161C156.463 35.7546 156.806 35.3259 157.252 35.0301C157.697 34.7403 158.208 34.5954 158.804 34.5954C159.4 34.5954 159.917 34.7403 160.357 35.0301C160.802 35.3199 161.139 35.7486 161.385 36.3161C161.626 36.8836 161.753 37.5719 161.753 38.3991C161.753 39.2262 161.632 39.9145 161.385 40.482ZM163.522 35.1629C163.046 34.2694 162.396 33.5932 161.572 33.1222C160.748 32.6513 159.827 32.4219 158.804 32.4219C157.781 32.4219 156.848 32.6573 156.03 33.1222C155.212 33.5871 154.562 34.2694 154.086 35.1629C153.611 36.0565 153.37 37.1312 153.37 38.4051C153.37 39.679 153.611 40.7477 154.086 41.6412C154.562 42.5348 155.212 43.211 156.03 43.6819C156.848 44.1529 157.775 44.3883 158.804 44.3883C159.833 44.3883 160.748 44.1529 161.572 43.688C162.39 43.217 163.046 42.5408 163.522 41.6473C163.997 40.7537 164.238 39.679 164.238 38.4051C164.238 37.1312 163.997 36.0565 163.522 35.1629ZM146.697 44.2253V39.4194H151.415V37.3908H146.697V34.6135H151.926V32.5849H144.242V44.2253H146.697ZM138.616 44.2253V42.1967H133.23V39.4194H138.195V37.3908H133.23V34.6135H138.598V32.5849H130.781V44.2253H138.622H138.616ZM128.471 34.8611C128.188 34.3358 127.827 33.895 127.381 33.5328C126.936 33.1705 126.425 32.8928 125.847 32.7056C125.269 32.5185 124.65 32.4219 123.976 32.4219C122.959 32.4219 122.038 32.6573 121.226 33.1222C120.413 33.5871 119.763 34.2694 119.288 35.1629C118.813 36.0565 118.572 37.1312 118.572 38.4051C118.572 39.679 118.807 40.7477 119.276 41.6412C119.745 42.5348 120.389 43.211 121.202 43.6819C122.014 44.1529 122.941 44.3883 123.976 44.3883C124.722 44.3883 125.39 44.2736 125.979 44.0502C126.569 43.8268 127.081 43.5189 127.508 43.1265C127.935 42.7401 128.278 42.2993 128.531 41.8042C128.783 41.3092 128.946 40.796 129.012 40.2586L126.533 40.2466C126.479 40.5545 126.376 40.8322 126.232 41.0737C126.088 41.3152 125.907 41.5205 125.684 41.6895C125.468 41.8586 125.215 41.9854 124.932 42.0699C124.65 42.1544 124.349 42.2027 124.018 42.2027C123.434 42.2027 122.917 42.0578 122.471 41.768C122.026 41.4782 121.677 41.0556 121.43 40.4881C121.184 39.9266 121.057 39.2262 121.057 38.3991C121.057 37.5719 121.177 36.9078 121.424 36.3403C121.671 35.7727 122.014 35.3441 122.459 35.0422C122.904 34.7403 123.428 34.5954 124.03 34.5954C124.361 34.5954 124.674 34.6437 124.956 34.7343C125.239 34.8248 125.492 34.9637 125.715 35.1448C125.931 35.3259 126.112 35.5373 126.25 35.7908C126.389 36.0444 126.485 36.3282 126.527 36.6542H129.006C128.928 35.978 128.747 35.3803 128.465 34.855M109.215 41.5627H115.425V39.6428H109.215V41.5627ZM112.29 35.2354H112.38L115.287 44.2193H117.916L113.915 32.5789H110.755L106.748 44.2193H109.377L112.29 35.2354ZM100.839 44.2193V34.5894H102.494C102.969 34.5894 103.36 34.6678 103.673 34.8309C103.98 34.9939 104.215 35.2173 104.365 35.5071C104.515 35.7969 104.594 36.135 104.594 36.5214C104.594 36.9078 104.515 37.2398 104.365 37.5357C104.215 37.8315 103.98 38.061 103.673 38.224C103.366 38.387 102.975 38.4715 102.506 38.4715H99.9844V40.4458H102.903C103.793 40.4458 104.552 40.2828 105.183 39.9507C105.815 39.6186 106.291 39.1598 106.628 38.5681C106.958 37.9764 107.127 37.2942 107.127 36.5214C107.127 35.7486 106.965 35.0663 106.634 34.4746C106.309 33.883 105.833 33.4181 105.213 33.08C104.594 32.7419 103.841 32.5789 102.963 32.5789H98.3837V44.2193H100.839ZM96.5846 35.9237C96.5725 35.2293 96.386 34.6195 96.031 34.0943C95.6699 33.569 95.1705 33.1585 94.5266 32.8626C93.8828 32.5668 93.1306 32.4219 92.2701 32.4219C91.4096 32.4219 90.6695 32.5668 90.0016 32.8626C89.3397 33.1585 88.8161 33.569 88.4371 34.0943C88.058 34.6195 87.8714 35.2354 87.8714 35.9418C87.8714 36.7991 88.1482 37.4874 88.7138 37.9945C89.2795 38.5017 90.0497 38.876 91.0305 39.1115L92.2942 39.4315C92.7154 39.5341 93.0764 39.6488 93.3653 39.7756C93.6601 39.9024 93.8828 40.0533 94.0332 40.2284C94.1836 40.4096 94.2619 40.6269 94.2619 40.8865C94.2619 41.1643 94.1776 41.4178 94.0091 41.6292C93.8406 41.8405 93.5999 42.0156 93.2931 42.1363C92.9862 42.2571 92.6251 42.3174 92.2099 42.3174C91.7947 42.3174 91.4096 42.251 91.0727 42.1242C90.7357 41.9914 90.4709 41.7982 90.2723 41.5386C90.0738 41.279 89.9594 40.9529 89.9354 40.5605H87.5585C87.5766 41.3997 87.7812 42.1001 88.1663 42.6676C88.5514 43.2351 89.0929 43.6578 89.7849 43.9476C90.4769 44.2374 91.2953 44.3823 92.228 44.3823C93.1607 44.3823 93.979 44.2374 94.653 43.9536C95.3209 43.6699 95.8384 43.2653 96.1934 42.7401C96.5485 42.2208 96.729 41.605 96.735 40.8926C96.735 40.4096 96.6447 39.9809 96.4702 39.6005C96.2957 39.2262 96.055 38.9002 95.7481 38.6225C95.4352 38.3447 95.0742 38.1153 94.647 37.9221C94.2257 37.7349 93.7564 37.578 93.2509 37.4693L92.2099 37.2217C91.9572 37.1674 91.7165 37.0949 91.4939 37.0165C91.2712 36.938 91.0727 36.8414 90.9042 36.7267C90.7357 36.618 90.6033 36.4791 90.507 36.3282C90.4107 36.1712 90.3686 35.9901 90.3746 35.7848C90.3746 35.5373 90.4469 35.3078 90.5913 35.1146C90.7357 34.9154 90.9463 34.7644 91.2231 34.6497C91.4999 34.535 91.8369 34.4807 92.234 34.4807C92.8237 34.4807 93.287 34.6075 93.636 34.8611C93.979 35.1146 94.1716 35.4708 94.2197 35.9297H96.5725L96.5846 35.9237ZM74.1458 41.5627H80.3557V39.6428H74.1458V41.5627ZM77.2207 35.2354H77.311L80.2173 44.2193H82.8469L78.8454 32.5789H75.6863L71.6787 44.2193H74.3083L77.2207 35.2354Z" fill="#B1D5CE"/>
</svg>
