<svg width="130" height="48" viewBox="0 0 130 48" fill="none" xmlns="http://www.w3.org/2000/svg">
<path d="M6.258 23.147C5.292 23.147 4.424 22.979 3.654 22.643C2.898 22.293 2.303 21.817 1.869 21.215C1.435 20.599 1.211 19.892 1.197 19.094H3.234C3.304 19.78 3.584 20.361 4.074 20.837C4.578 21.299 5.306 21.53 6.258 21.53C7.168 21.53 7.882 21.306 8.4 20.858C8.932 20.396 9.198 19.808 9.198 19.094C9.198 18.534 9.044 18.079 8.736 17.729C8.428 17.379 8.043 17.113 7.581 16.931C7.119 16.749 6.496 16.553 5.712 16.343C4.746 16.091 3.969 15.839 3.381 15.587C2.807 15.335 2.31 14.943 1.89 14.411C1.484 13.865 1.281 13.137 1.281 12.227C1.281 11.429 1.484 10.722 1.89 10.106C2.296 9.49 2.863 9.014 3.591 8.678C4.333 8.342 5.18 8.174 6.132 8.174C7.504 8.174 8.624 8.517 9.492 9.203C10.374 9.889 10.871 10.799 10.983 11.933H8.883C8.813 11.373 8.519 10.883 8.001 10.463C7.483 10.029 6.797 9.812 5.943 9.812C5.145 9.812 4.494 10.022 3.99 10.442C3.486 10.848 3.234 11.422 3.234 12.164C3.234 12.696 3.381 13.13 3.675 13.466C3.983 13.802 4.354 14.061 4.788 14.243C5.236 14.411 5.859 14.607 6.657 14.831C7.623 15.097 8.4 15.363 8.988 15.629C9.576 15.881 10.08 16.28 10.5 16.826C10.92 17.358 11.13 18.086 11.13 19.01C11.13 19.724 10.941 20.396 10.563 21.026C10.185 21.656 9.625 22.167 8.883 22.559C8.141 22.951 7.266 23.147 6.258 23.147ZM13.2282 17.225C13.2282 16.035 13.4662 14.999 13.9422 14.117C14.4182 13.221 15.0762 12.528 15.9162 12.038C16.7702 11.548 17.7432 11.303 18.8352 11.303C20.2492 11.303 21.4112 11.646 22.3212 12.332C23.2452 13.018 23.8542 13.97 24.1482 15.188H22.0902C21.8942 14.488 21.5092 13.935 20.9352 13.529C20.3752 13.123 19.6752 12.92 18.8352 12.92C17.7432 12.92 16.8612 13.298 16.1892 14.054C15.5172 14.796 15.1812 15.853 15.1812 17.225C15.1812 18.611 15.5172 19.682 16.1892 20.438C16.8612 21.194 17.7432 21.572 18.8352 21.572C19.6752 21.572 20.3752 21.376 20.9352 20.984C21.4952 20.592 21.8802 20.032 22.0902 19.304H24.1482C23.8402 20.48 23.2242 21.425 22.3002 22.139C21.3762 22.839 20.2212 23.189 18.8352 23.189C17.7432 23.189 16.7702 22.944 15.9162 22.454C15.0762 21.964 14.4182 21.271 13.9422 20.375C13.4662 19.479 13.2282 18.429 13.2282 17.225ZM31.7171 23.189C30.6391 23.189 29.6591 22.944 28.7771 22.454C27.9091 21.964 27.2231 21.271 26.7191 20.375C26.2291 19.465 25.9841 18.415 25.9841 17.225C25.9841 16.049 26.2361 15.013 26.7401 14.117C27.2581 13.207 27.9581 12.514 28.8401 12.038C29.7221 11.548 30.7091 11.303 31.8011 11.303C32.8931 11.303 33.8801 11.548 34.7621 12.038C35.6441 12.514 36.3371 13.2 36.8411 14.096C37.3591 14.992 37.6181 16.035 37.6181 17.225C37.6181 18.415 37.3521 19.465 36.8201 20.375C36.3021 21.271 35.5951 21.964 34.6991 22.454C33.8031 22.944 32.8091 23.189 31.7171 23.189ZM31.7171 21.509C32.4031 21.509 33.0471 21.348 33.6491 21.026C34.2511 20.704 34.7341 20.221 35.0981 19.577C35.4761 18.933 35.6651 18.149 35.6651 17.225C35.6651 16.301 35.4831 15.517 35.1191 14.873C34.7551 14.229 34.2791 13.753 33.6911 13.445C33.1031 13.123 32.4661 12.962 31.7801 12.962C31.0801 12.962 30.4361 13.123 29.8481 13.445C29.2741 13.753 28.8121 14.229 28.4621 14.873C28.1121 15.517 27.9371 16.301 27.9371 17.225C27.9371 18.163 28.1051 18.954 28.4411 19.598C28.7911 20.242 29.2531 20.725 29.8271 21.047C30.4011 21.355 31.0311 21.509 31.7171 21.509ZM42.0417 13.613C42.4197 12.955 42.9797 12.409 43.7217 11.975C44.4777 11.527 45.3527 11.303 46.3467 11.303C47.3687 11.303 48.2927 11.548 49.1187 12.038C49.9587 12.528 50.6167 13.221 51.0927 14.117C51.5687 14.999 51.8067 16.028 51.8067 17.204C51.8067 18.366 51.5687 19.402 51.0927 20.312C50.6167 21.222 49.9587 21.929 49.1187 22.433C48.2927 22.937 47.3687 23.189 46.3467 23.189C45.3667 23.189 44.4987 22.972 43.7427 22.538C43.0007 22.09 42.4337 21.537 42.0417 20.879V28.46H40.1307V11.492H42.0417V13.613ZM49.8537 17.204C49.8537 16.336 49.6787 15.58 49.3287 14.936C48.9787 14.292 48.5027 13.802 47.9007 13.466C47.3127 13.13 46.6617 12.962 45.9477 12.962C45.2477 12.962 44.5967 13.137 43.9947 13.487C43.4067 13.823 42.9307 14.32 42.5667 14.978C42.2167 15.622 42.0417 16.371 42.0417 17.225C42.0417 18.093 42.2167 18.856 42.5667 19.514C42.9307 20.158 43.4067 20.655 43.9947 21.005C44.5967 21.341 45.2477 21.509 45.9477 21.509C46.6617 21.509 47.3127 21.341 47.9007 21.005C48.5027 20.655 48.9787 20.158 49.3287 19.514C49.6787 18.856 49.8537 18.086 49.8537 17.204ZM56.2331 13.361C56.5691 12.703 57.0451 12.192 57.6611 11.828C58.2911 11.464 59.0541 11.282 59.9501 11.282V13.256H59.4461C57.3041 13.256 56.2331 14.418 56.2331 16.742V23H54.3221V11.492H56.2331V13.361ZM63.1431 9.623C62.7791 9.623 62.4711 9.497 62.2191 9.245C61.9671 8.993 61.8411 8.685 61.8411 8.321C61.8411 7.957 61.9671 7.649 62.2191 7.397C62.4711 7.145 62.7791 7.019 63.1431 7.019C63.4931 7.019 63.7871 7.145 64.0251 7.397C64.2771 7.649 64.4031 7.957 64.4031 8.321C64.4031 8.685 64.2771 8.993 64.0251 9.245C63.7871 9.497 63.4931 9.623 63.1431 9.623ZM64.0671 11.492V23H62.1561V11.492H64.0671ZM72.2087 17.204C72.2087 16.028 72.4467 14.999 72.9227 14.117C73.3987 13.221 74.0497 12.528 74.8757 12.038C75.7157 11.548 76.6537 11.303 77.6897 11.303C78.5857 11.303 79.4187 11.513 80.1887 11.933C80.9587 12.339 81.5467 12.878 81.9527 13.55V7.46H83.8847V23H81.9527V20.837C81.5747 21.523 81.0147 22.09 80.2727 22.538C79.5307 22.972 78.6627 23.189 77.6687 23.189C76.6467 23.189 75.7157 22.937 74.8757 22.433C74.0497 21.929 73.3987 21.222 72.9227 20.312C72.4467 19.402 72.2087 18.366 72.2087 17.204ZM81.9527 17.225C81.9527 16.357 81.7777 15.601 81.4277 14.957C81.0777 14.313 80.6017 13.823 79.9997 13.487C79.4117 13.137 78.7607 12.962 78.0467 12.962C77.3327 12.962 76.6817 13.13 76.0937 13.466C75.5057 13.802 75.0367 14.292 74.6867 14.936C74.3367 15.58 74.1617 16.336 74.1617 17.204C74.1617 18.086 74.3367 18.856 74.6867 19.514C75.0367 20.158 75.5057 20.655 76.0937 21.005C76.6817 21.341 77.3327 21.509 78.0467 21.509C78.7607 21.509 79.4117 21.341 79.9997 21.005C80.6017 20.655 81.0777 20.158 81.4277 19.514C81.7777 18.856 81.9527 18.093 81.9527 17.225ZM88.1011 9.623C87.7371 9.623 87.4291 9.497 87.1771 9.245C86.9251 8.993 86.7991 8.685 86.7991 8.321C86.7991 7.957 86.9251 7.649 87.1771 7.397C87.4291 7.145 87.7371 7.019 88.1011 7.019C88.4511 7.019 88.7451 7.145 88.9831 7.397C89.2351 7.649 89.3611 7.957 89.3611 8.321C89.3611 8.685 89.2351 8.993 88.9831 9.245C88.7451 9.497 88.4511 9.623 88.1011 9.623ZM89.0251 11.492V23H87.1141V11.492H89.0251ZM99.7917 13.613C100.17 12.955 100.73 12.409 101.472 11.975C102.228 11.527 103.103 11.303 104.097 11.303C105.119 11.303 106.043 11.548 106.869 12.038C107.709 12.528 108.367 13.221 108.843 14.117C109.319 14.999 109.557 16.028 109.557 17.204C109.557 18.366 109.319 19.402 108.843 20.312C108.367 21.222 107.709 21.929 106.869 22.433C106.043 22.937 105.119 23.189 104.097 23.189C103.117 23.189 102.249 22.972 101.493 22.538C100.751 22.09 100.184 21.537 99.7917 20.879V28.46H97.8807V11.492H99.7917V13.613ZM107.604 17.204C107.604 16.336 107.429 15.58 107.079 14.936C106.729 14.292 106.253 13.802 105.651 13.466C105.063 13.13 104.412 12.962 103.698 12.962C102.998 12.962 102.347 13.137 101.745 13.487C101.157 13.823 100.681 14.32 100.317 14.978C99.9667 15.622 99.7917 16.371 99.7917 17.225C99.7917 18.093 99.9667 18.856 100.317 19.514C100.681 20.158 101.157 20.655 101.745 21.005C102.347 21.341 102.998 21.509 103.698 21.509C104.412 21.509 105.063 21.341 105.651 21.005C106.253 20.655 106.729 20.158 107.079 19.514C107.429 18.856 107.604 18.086 107.604 17.204ZM113.059 9.623C112.695 9.623 112.387 9.497 112.135 9.245C111.883 8.993 111.757 8.685 111.757 8.321C111.757 7.957 111.883 7.649 112.135 7.397C112.387 7.145 112.695 7.019 113.059 7.019C113.409 7.019 113.703 7.145 113.941 7.397C114.193 7.649 114.319 7.957 114.319 8.321C114.319 8.685 114.193 8.993 113.941 9.245C113.703 9.497 113.409 9.623 113.059 9.623ZM113.983 11.492V23H112.072V11.492H113.983ZM127.446 11.492V23H125.535V21.299C125.171 21.887 124.66 22.349 124.002 22.685C123.358 23.007 122.644 23.168 121.86 23.168C120.964 23.168 120.159 22.986 119.445 22.622C118.731 22.244 118.164 21.684 117.744 20.942C117.338 20.2 117.135 19.297 117.135 18.233V11.492H119.025V17.981C119.025 19.115 119.312 19.99 119.886 20.606C120.46 21.208 121.244 21.509 122.238 21.509C123.26 21.509 124.065 21.194 124.653 20.564C125.241 19.934 125.535 19.017 125.535 17.813V11.492H127.446ZM124.401 9.203V10.631L119.928 8.237V6.578L124.401 9.203Z" fill="white"/>
<path d="M75.4375 32.375L64.5 41.75L53.5625 32.375" stroke="white" stroke-width="1.875" stroke-linecap="round" stroke-linejoin="round"/>
</svg>
