<svg width="86" height="33" viewBox="0 0 86 33" fill="none" xmlns="http://www.w3.org/2000/svg">
<g clip-path="url(#clip0_32_7)">
<path d="M13.502 5.6006C18.9205 16.3649 30.0676 23.7505 42.9406 23.7505C55.8135 23.7505 66.9606 16.3649 72.3792 5.60059L13.502 5.6006Z" fill="#B8D4CE"/>
<path d="M20.0566 23.7505C25.9827 29.4762 34.0494 33 42.9405 33C51.8317 33 59.8984 29.4762 65.825 23.7505H20.0566Z" fill="#B8D4CE"/>
</g>
<path d="M5.12642 2.31393C5.08096 1.77131 4.85937 1.33238 4.46165 0.997155C4.06676 0.661932 3.5554 0.494318 2.92756 0.494318C2.50426 0.494318 2.12784 0.572443 1.79829 0.728693C1.46875 0.884945 1.21023 1.09802 1.02273 1.3679C0.835231 1.63779 0.741481 1.94745 0.741481 2.29688C0.741481 2.5213 0.784091 2.72444 0.869321 2.90626C0.957391 3.08523 1.08096 3.24573 1.24006 3.38778C1.39915 3.52698 1.58807 3.64915 1.80682 3.75427C2.02557 3.85938 2.26704 3.9517 2.53125 4.03125L3.48579 4.3125C3.8125 4.41194 4.11363 4.52698 4.3892 4.65767C4.66761 4.78835 4.90909 4.9446 5.11363 5.12642C5.32102 5.30539 5.48153 5.51562 5.59517 5.7571C5.71165 5.99857 5.76989 6.27699 5.76989 6.59233C5.76989 7.05256 5.65057 7.46448 5.41193 7.82812C5.17614 8.19177 4.83949 8.47869 4.40199 8.68892C3.96733 8.8963 3.45454 9 2.86363 9C2.30113 9 1.81108 8.90483 1.39346 8.71449C0.978691 8.52415 0.650571 8.25995 0.409091 7.92188C0.167611 7.58097 0.03125 7.18893 0 6.74574H0.545451C0.573861 7.10654 0.688921 7.41904 0.890621 7.68324C1.09517 7.94461 1.36648 8.1463 1.70454 8.28835C2.04261 8.43039 2.42898 8.50142 2.86363 8.50142C3.33239 8.50142 3.74574 8.42187 4.10369 8.26278C4.46165 8.10085 4.74148 7.87643 4.94318 7.58949C5.14489 7.30256 5.24574 6.96875 5.24574 6.58807C5.24574 6.28125 5.17329 6.01847 5.02841 5.79972C4.88352 5.58097 4.66903 5.39204 4.38494 5.23295C4.10369 5.07386 3.75426 4.93182 3.33665 4.80682L2.31818 4.5C1.63636 4.29262 1.11506 4.00994 0.754261 3.65198C0.396311 3.29403 0.217331 2.84802 0.217331 2.31393C0.217331 1.86506 0.336651 1.46733 0.575281 1.12074C0.813921 0.771307 1.13778 0.497159 1.54687 0.298295C1.95881 0.099432 2.42329 0 2.94034 0C3.46023 0 3.91903 0.100852 4.31676 0.302557C4.71449 0.50142 5.02983 0.775568 5.26278 1.12499C5.49574 1.47159 5.625 1.8679 5.65057 2.31393H5.12642ZM14.5227 2.85938H13.9773C13.9204 2.56392 13.8139 2.27841 13.6577 2.00285C13.5014 1.72444 13.2997 1.47444 13.0525 1.25285C12.8082 1.02841 12.5241 0.850852 12.2003 0.72017C11.8764 0.589488 11.5185 0.524147 11.1264 0.524147C10.5525 0.524147 10.0241 0.677557 9.54121 0.984375C9.06108 1.28835 8.67614 1.73579 8.38636 2.3267C8.09943 2.91761 7.95596 3.64063 7.95596 4.49574C7.95596 5.35654 8.09943 6.08239 8.38636 6.6733C8.67614 7.26421 9.06108 7.71165 9.54121 8.01562C10.0241 8.31677 10.5525 8.46733 11.1264 8.46733C11.5185 8.46733 11.8764 8.40341 12.2003 8.27557C12.5241 8.14489 12.8082 7.96875 13.0525 7.74716C13.2997 7.52273 13.5014 7.27131 13.6577 6.9929C13.8139 6.71449 13.9204 6.42755 13.9773 6.1321H14.5227C14.4602 6.48437 14.3395 6.82954 14.1605 7.16761C13.9844 7.50568 13.7514 7.8125 13.4616 8.08807C13.1747 8.3608 12.8352 8.57813 12.4432 8.74006C12.054 8.89915 11.615 8.97869 11.1264 8.97869C10.3991 8.97869 9.75851 8.79404 9.20451 8.42472C8.65057 8.05256 8.21591 7.52982 7.90057 6.85653C7.58807 6.18323 7.43182 5.39631 7.43182 4.49574C7.43182 3.59518 7.58807 2.80823 7.90057 2.13494C8.21591 1.46164 8.65057 0.940345 9.20451 0.571022C9.75851 0.198863 10.3991 0.012784 11.1264 0.012784C11.615 0.012784 12.054 0.09375 12.4432 0.255682C12.8352 0.414773 13.1747 0.630682 13.4616 0.903405C13.7514 1.17329 13.9844 1.47728 14.1605 1.81535C14.3395 2.15341 14.4602 2.50142 14.5227 2.85938ZM16.5703 8.85938V0.132102H19.2592C19.8104 0.132102 20.2848 0.240057 20.6825 0.455966C21.0802 0.671875 21.3856 0.971595 21.5987 1.35512C21.8118 1.7358 21.9183 2.17897 21.9183 2.68465C21.9183 3.18465 21.8118 3.62499 21.5987 4.00568C21.3856 4.38352 21.0802 4.67898 20.6825 4.89205C20.2876 5.10512 19.8146 5.21165 19.2635 5.21165H16.8558V4.71307H19.2507C19.6996 4.71307 20.0831 4.62927 20.4013 4.46165C20.7194 4.29404 20.9638 4.05965 21.1342 3.75852C21.3047 3.45454 21.3899 3.09659 21.3899 2.68465C21.3899 2.26988 21.3047 1.9091 21.1342 1.60228C20.9638 1.29262 20.718 1.05255 20.397 0.882105C20.0788 0.711648 19.6953 0.62642 19.2464 0.62642H17.103V8.85938H16.5703ZM20.1541 4.90483L22.3018 8.85938H21.6882L19.5533 4.90483H20.1541ZM30.9886 4.49574C30.9886 5.39631 30.8324 6.18323 30.5199 6.85653C30.2074 7.52698 29.7727 8.04829 29.2159 8.42045C28.6619 8.79261 28.0227 8.97869 27.2983 8.97869C26.571 8.97869 25.929 8.79261 25.3721 8.42045C24.8182 8.04545 24.3849 7.52272 24.0724 6.85227C23.7599 6.17897 23.6037 5.39347 23.6037 4.49574C23.6037 3.59518 23.7599 2.80965 24.0724 2.1392C24.3878 1.46874 24.8224 0.947445 25.3764 0.575284C25.9304 0.200284 26.571 0.012784 27.2983 0.012784C28.0227 0.012784 28.6619 0.198863 29.2159 0.571022C29.7727 0.943185 30.2074 1.4659 30.5199 2.1392C30.8324 2.80965 30.9886 3.59518 30.9886 4.49574ZM30.4687 4.49574C30.4687 3.68608 30.3324 2.98438 30.0596 2.39062C29.7898 1.79688 29.4162 1.33806 28.9389 1.0142C28.4616 0.6875 27.9148 0.524147 27.2983 0.524147C26.6818 0.524147 26.1349 0.686079 25.6577 1.00995C25.1804 1.33097 24.8054 1.78977 24.5327 2.38636C24.2628 2.98011 24.1278 3.68324 24.1278 4.49574C24.1278 5.29972 24.2614 5.99999 24.5284 6.59659C24.7983 7.19034 25.1719 7.65056 25.6491 7.97727C26.1264 8.30397 26.6761 8.46733 27.2983 8.46733C27.9148 8.46733 28.4616 8.30539 28.9389 7.98153C29.4162 7.65482 29.7898 7.1946 30.0596 6.60085C30.3324 6.0071 30.4687 5.3054 30.4687 4.49574ZM33.0703 8.85938V0.132102H33.603V8.36506H37.8643V8.85938H33.0703ZM39.8203 8.85938V0.132102H40.353V8.36506H44.6143V8.85938H39.8203ZM52.3658 8.85938H49.9453V0.132102H52.5533C53.3714 0.132102 54.0717 0.305398 54.6541 0.651989C55.2365 0.998575 55.6825 1.49574 55.9922 2.14347C56.3047 2.78836 56.4595 3.5625 56.4567 4.46591C56.4538 5.38921 56.2919 6.17898 55.9709 6.83523C55.6498 7.48864 55.1854 7.99006 54.5774 8.33949C53.9694 8.68608 53.2322 8.85938 52.3658 8.85938ZM50.478 8.36506H52.3444C53.1229 8.36506 53.7791 8.21023 54.3132 7.90057C54.8473 7.58807 55.2507 7.14063 55.5234 6.55824C55.799 5.97586 55.9354 5.27841 55.9325 4.46591C55.9325 3.66478 55.8004 2.9787 55.5362 2.40768C55.272 1.83381 54.8871 1.39347 54.3814 1.08665C53.8785 0.779829 53.2621 0.62642 52.5319 0.62642H50.478V8.36506ZM65.4769 4.49574C65.4769 5.39631 65.3207 6.18323 65.0082 6.85653C64.6957 7.52698 64.261 8.04829 63.7042 8.42045C63.1502 8.79261 62.511 8.97869 61.7866 8.97869C61.0593 8.97869 60.4172 8.79261 59.8604 8.42045C59.3065 8.04545 58.8732 7.52272 58.5607 6.85227C58.2482 6.17897 58.092 5.39347 58.092 4.49574C58.092 3.59518 58.2482 2.80965 58.5607 2.1392C58.8761 1.46874 59.3107 0.947445 59.8647 0.575284C60.4187 0.200284 61.0593 0.012784 61.7866 0.012784C62.511 0.012784 63.1502 0.198863 63.7042 0.571022C64.261 0.943185 64.6957 1.4659 65.0082 2.1392C65.3207 2.80965 65.4769 3.59518 65.4769 4.49574ZM64.957 4.49574C64.957 3.68608 64.8207 2.98438 64.5479 2.39062C64.278 1.79688 63.9045 1.33806 63.4272 1.0142C62.9499 0.6875 62.403 0.524147 61.7866 0.524147C61.1701 0.524147 60.6232 0.686079 60.1459 1.00995C59.6687 1.33097 59.2937 1.78977 59.0209 2.38636C58.7511 2.98011 58.6161 3.68324 58.6161 4.49574C58.6161 5.29972 58.7496 5.99999 59.0167 6.59659C59.2866 7.19034 59.6601 7.65056 60.1374 7.97727C60.6147 8.30397 61.1644 8.46733 61.7866 8.46733C62.403 8.46733 62.9499 8.30539 63.4272 7.98153C63.9045 7.65482 64.278 7.1946 64.5479 6.60085C64.8207 6.0071 64.957 5.3054 64.957 4.49574ZM69.0074 8.85938L66.6083 0.132102H67.1623L69.293 8.03693H69.3441L71.4407 0.132102H72.0884L74.185 8.03693H74.2361L76.3668 0.132102H76.9165L74.5174 8.85938H73.9038L71.7859 1.00568H71.739L69.6211 8.85938H69.0074ZM85.1612 0.132102V8.85938H84.6413L79.076 1.09943H79.0248V8.85938H78.4922V0.132102H79.0163L84.5817 7.90057H84.6328V0.132102H85.1612Z" fill="#B1D5CE"/>
<defs>
<clipPath id="clip0_32_7">
<rect width="66" height="19" fill="white" transform="translate(10 14)"/>
</clipPath>
</defs>
</svg>
