<svg width="50" height="61" viewBox="0 0 50 61" fill="none" xmlns="http://www.w3.org/2000/svg">
<path d="M6 33V59.5H27V33L20 29L6 33Z" stroke="#122229" stroke-width="1.7"/>
<path d="M20 29V59.5" stroke="#122229" stroke-width="1.7"/>
<path d="M14.5 30.5V22L34 16.5L43.5 22V59.5H27" stroke="#122229" stroke-width="1.7"/>
<path d="M34 16.5V59" stroke="#122229" stroke-width="1.8"/>
<path d="M6 39L19.5 35" stroke="#122229" stroke-width="1.8"/>
<path d="M6 46L19.5 42" stroke="#122229" stroke-width="1.8"/>
<path d="M6 53L19.5 49" stroke="#122229" stroke-width="1.8"/>
<path d="M1.5 59.5H48.5" stroke="#122229" stroke-width="1.8" stroke-linecap="round"/>
<path d="M25 1L27.163 5.27865L32 5.96898L28.5 9.29758L29.326 14L25 11.7787L20.674 14L21.5 9.29758L18 5.96898L22.837 5.27865L25 1Z" stroke="#122229" stroke-width="1.8" stroke-linecap="round" stroke-linejoin="round"/>
</svg>
