<svg width="60" height="60" viewBox="0 0 60 60" fill="none" xmlns="http://www.w3.org/2000/svg">
<g clip-path="url(#clip0_25_703)">
<path d="M11.7304 43.1321C14.1355 46.1613 17.2621 48.5475 20.8279 50.0752C20.9445 50.1253 21.0702 50.1509 21.1971 50.1506C21.4135 50.151 21.6234 50.0771 21.7912 49.9415C21.9591 49.8058 22.0747 49.6167 22.1184 49.4061C22.162 49.1955 22.1312 48.9764 22.031 48.7859C21.9308 48.5953 21.7675 48.4449 21.5686 48.3603C18.2898 46.9555 15.4147 44.7615 13.2027 41.9764C13.1283 41.8749 13.034 41.7894 12.9255 41.7249C12.817 41.6604 12.6966 41.6184 12.5713 41.6013C12.4461 41.5843 12.3187 41.5925 12.1968 41.6255C12.0748 41.6585 11.9608 41.7157 11.8617 41.7935C11.7625 41.8714 11.6802 41.9683 11.6196 42.0786C11.559 42.1888 11.5215 42.3101 11.5092 42.4351C11.497 42.5601 11.5102 42.6862 11.5482 42.806C11.5862 42.9258 11.6482 43.0367 11.7304 43.1321ZM48.3686 16.1969C48.2704 16.2711 48.1585 16.3254 48.0392 16.3565C47.92 16.3876 47.7957 16.395 47.6735 16.3783C47.5513 16.3615 47.4337 16.321 47.3273 16.259C47.221 16.197 47.128 16.1147 47.0537 16.0169C44.8116 13.0777 41.8416 10.7655 38.433 9.30559C38.2041 9.20784 38.0237 9.02376 37.9314 8.79384C37.8391 8.56392 37.8425 8.30699 37.9409 8.07957C38.0393 7.85215 38.2245 7.67288 38.4559 7.58118C38.6873 7.48949 38.9459 7.49289 39.1748 7.59063C42.8823 9.17776 46.1127 11.6924 48.5509 14.8893C48.7012 15.0867 48.7666 15.3352 48.7326 15.5804C48.6986 15.8255 48.5681 16.0473 48.3697 16.1969H48.3686ZM21.5709 9.30446C18.1619 10.7638 15.1917 13.076 12.9501 16.0158C12.7978 16.2071 12.5762 16.3315 12.3326 16.3624C12.0891 16.3933 11.8431 16.3282 11.6473 16.181C11.4515 16.0339 11.3215 15.8164 11.2852 15.5752C11.2489 15.3339 11.3091 15.0881 11.4529 14.8905C13.8903 11.6926 17.1204 9.17716 20.8279 7.5895C21.056 7.49712 21.3114 7.49736 21.5393 7.59017C21.7672 7.68298 21.9493 7.86094 22.0465 8.08579C22.1437 8.31064 22.1482 8.5644 22.059 8.79251C21.9699 9.02062 21.7942 9.20485 21.5697 9.30559L21.5709 9.30446ZM38.8033 50.1529C38.5869 50.1533 38.377 50.0794 38.2092 49.9437C38.0413 49.808 37.9258 49.6189 37.8821 49.4084C37.8384 49.1978 37.8692 48.9787 37.9694 48.7881C38.0696 48.5975 38.2329 48.4472 38.4318 48.3625C41.7114 46.958 44.5871 44.7636 46.7989 41.9776C46.8733 41.876 46.9676 41.7905 47.076 41.726C47.1845 41.6616 47.305 41.6195 47.4302 41.6025C47.5554 41.5854 47.6828 41.5936 47.8048 41.6266C47.9267 41.6597 48.0407 41.7168 48.1399 41.7947C48.2391 41.8725 48.3214 41.9695 48.382 42.0797C48.4425 42.1899 48.4801 42.3112 48.4923 42.4362C48.5046 42.5612 48.4913 42.6874 48.4533 42.8071C48.4153 42.9269 48.3534 43.0378 48.2712 43.1332C45.8662 46.1618 42.74 48.5476 39.1748 50.0752C39.0578 50.1255 38.9318 50.1515 38.8044 50.1517L38.8033 50.1529ZM39.5576 17.1017C38.9266 15.0998 37.6792 13.3451 35.9913 12.0851C35.2299 11.5191 34.3908 11.0643 33.4997 10.7347C34.3817 10.0182 35.019 9.04813 35.3243 7.95756C35.6297 6.86699 35.5881 5.70928 35.2052 4.64312C34.8224 3.57697 34.1171 2.65455 33.1859 2.00233C32.2548 1.35011 31.1434 1 30.0042 1C28.8649 1 27.7536 1.35011 26.8224 2.00233C25.8913 2.65455 25.186 3.57697 24.8031 4.64312C24.4203 5.70928 24.3787 6.86699 24.684 7.95756C24.9894 9.04813 25.6267 10.0182 26.5086 10.7347C25.6175 11.0643 24.7785 11.5191 24.0171 12.0851C22.3292 13.3451 21.0818 15.0998 20.4508 17.1017C20.3105 17.5487 20.278 18.0222 20.3558 18.484C20.4337 18.9458 20.6197 19.383 20.8989 19.7602C21.1781 20.1374 21.5427 20.444 21.9631 20.6555C22.3836 20.8669 22.8482 20.9771 23.3195 20.9772H36.6832C37.1553 20.9787 37.6211 20.8695 38.0429 20.6587C38.4646 20.4478 38.8303 20.1411 39.1104 19.7635C39.3905 19.3858 39.5771 18.9479 39.655 18.4853C39.7328 18.0226 39.6999 17.5482 39.5587 17.1005L39.5576 17.1017ZM33.6447 6.48671C33.6444 7.20265 33.4306 7.90244 33.0301 8.49762C32.6296 9.09279 32.0605 9.55661 31.3948 9.83043C30.729 10.1043 29.9965 10.1758 29.2899 10.036C28.5832 9.89617 27.9341 9.5513 27.4247 9.04498C26.9153 8.53865 26.5684 7.89361 26.4279 7.19141C26.2875 6.48922 26.3597 5.76139 26.6355 5.09997C26.9112 4.43855 27.3782 3.87324 27.9773 3.47551C28.5765 3.07778 29.2808 2.86549 30.0013 2.86549C30.9673 2.86638 31.8935 3.24807 32.5766 3.92678C33.2596 4.60548 33.6438 5.52575 33.6447 6.48558V6.48671ZM37.5972 18.658C37.4912 18.7994 37.353 18.9139 37.194 18.9922C37.035 19.0704 36.8595 19.1101 36.6821 19.1081H23.3195C23.141 19.1097 22.9648 19.0692 22.8052 18.9899C22.6456 18.9106 22.5073 18.7947 22.4017 18.6518C22.2961 18.5089 22.2261 18.3431 22.1977 18.1681C22.1692 17.9931 22.183 17.8139 22.2379 17.6452C22.7524 15.9993 23.7833 14.56 25.18 13.5379C26.5766 12.5159 28.2657 11.9645 30.0002 11.9645C31.7348 11.9645 33.4238 12.5159 34.8205 13.5379C36.2171 14.56 37.248 15.9993 37.7625 17.6452C37.8159 17.8138 37.8285 17.9926 37.7994 18.167C37.7703 18.3414 37.7002 18.5065 37.5949 18.649L37.5972 18.658ZM0.587493 37.608C0.866447 37.9865 1.23178 38.2938 1.65349 38.5046C2.0752 38.7155 2.54126 38.824 3.01335 38.8211H16.3771C16.8484 38.8219 17.3132 38.7125 17.7341 38.5018C18.155 38.2911 18.5201 37.9849 18.7999 37.6081C19.0797 37.2313 19.2663 36.7944 19.3448 36.3326C19.4232 35.8709 19.3913 35.3973 19.2514 34.9501C18.7968 33.4991 18.0145 32.1706 16.9642 31.0659C15.9139 29.9613 14.6234 29.1097 13.1913 28.5764C14.0728 27.8598 14.7096 26.8899 15.0146 25.7996C15.3196 24.7093 15.2778 23.552 14.8949 22.4863C14.5121 21.4205 13.8069 20.4985 12.876 19.8466C11.9451 19.1946 10.8341 18.8447 9.69523 18.8447C8.55636 18.8447 7.44535 19.1946 6.51447 19.8466C5.58359 20.4985 4.8784 21.4205 4.49553 22.4863C4.11266 23.552 4.07085 24.7093 4.37584 25.7996C4.68083 26.8899 5.31769 27.8598 6.19914 28.5764C5.30768 28.9077 4.46863 29.3644 3.70759 29.9323C2.01877 31.1923 0.770896 32.9474 0.140145 34.9501C-0.00300927 35.3973 -0.0371039 35.872 0.0406758 36.3349C0.118456 36.7978 0.305883 37.2357 0.587493 37.6125V37.608ZM13.3386 24.3295C13.3388 25.0458 13.1252 25.7461 12.7248 26.3417C12.3245 26.9374 11.7553 27.4017 11.0893 27.676C10.4233 27.9502 9.69043 28.022 8.98337 27.8823C8.27631 27.7426 7.62683 27.3977 7.11708 26.8912C6.60732 26.3847 6.2602 25.7393 6.11962 25.0368C5.97903 24.3342 6.0513 23.606 6.32728 22.9443C6.60326 22.2826 7.07055 21.717 7.67005 21.3192C8.26955 20.9214 8.97433 20.7092 9.69523 20.7094C10.6611 20.7106 11.5871 21.0924 12.2701 21.771C12.9531 22.4496 13.3374 23.3697 13.3386 24.3295ZM1.93292 35.497C2.44742 33.851 3.47836 32.4118 4.87498 31.3897C6.27161 30.3676 7.96068 29.8163 9.69523 29.8163C11.4298 29.8163 13.1189 30.3676 14.5155 31.3897C15.9121 32.4118 16.943 33.851 17.4575 35.497C17.5122 35.6656 17.5258 35.8448 17.4972 36.0197C17.4686 36.1946 17.3987 36.3603 17.2931 36.5031C17.1875 36.6459 17.0493 36.7618 16.8899 36.8412C16.7304 36.9206 16.5543 36.9613 16.376 36.9598H3.01222C2.83444 36.9611 2.65888 36.9206 2.49987 36.8416C2.34087 36.7626 2.20294 36.6473 2.09735 36.5052C1.99176 36.3631 1.92151 36.1982 1.89234 36.0239C1.86317 35.8497 1.87592 35.671 1.92952 35.5026L1.93292 35.497ZM43.6278 38.8222H56.9916C57.4628 38.8226 57.9276 38.713 58.3483 38.502C58.769 38.2911 59.1339 37.9849 59.4135 37.608C59.6932 37.2311 59.8797 36.7942 59.9581 36.3325C60.0365 35.8708 60.0045 35.3972 59.8648 34.9501C59.2335 32.9483 57.9861 31.1938 56.2985 29.9335C55.5375 29.3655 54.6984 28.9089 53.807 28.5775C54.6889 27.8609 55.3262 26.8909 55.6316 25.8003C55.9369 24.7098 55.8953 23.552 55.5125 22.4859C55.1296 21.4197 54.4243 20.4973 53.4932 19.8451C52.562 19.1929 51.4507 18.8428 50.3114 18.8428C49.1722 18.8428 48.0608 19.1929 47.1297 19.8451C46.1985 20.4973 45.4932 21.4197 45.1104 22.4859C44.7275 23.552 44.6859 24.7098 44.9913 25.8003C45.2966 26.8909 45.9339 27.8609 46.8159 28.5775C45.9243 28.9086 45.0852 29.3653 44.3243 29.9335C42.6347 31.1929 41.3857 32.9476 40.7535 34.9501C40.6126 35.3976 40.5798 35.8718 40.6577 36.3343C40.7357 36.7968 40.9222 37.2345 41.2021 37.6121C41.482 37.9896 41.8475 38.2963 42.2689 38.5073C42.6904 38.7184 43.1559 38.8278 43.6278 38.8267V38.8222ZM53.9519 24.3306C53.9521 25.0469 53.7386 25.7472 53.3382 26.3429C52.9378 26.9385 52.3686 27.4029 51.7027 27.6771C51.0367 27.9513 50.3038 28.0231 49.5967 27.8834C48.8897 27.7437 48.2402 27.3988 47.7304 26.8923C47.2207 26.3858 46.8736 25.7405 46.733 25.0379C46.5924 24.3354 46.6647 23.6072 46.9406 22.9454C47.2166 22.2837 47.6839 21.7181 48.2834 21.3203C48.8829 20.9225 49.5877 20.7103 50.3086 20.7105C51.2745 20.7117 52.2005 21.0935 52.8835 21.7721C53.5665 22.4508 53.9507 23.3709 53.9519 24.3306ZM56.9882 36.9565H43.6244C43.4465 36.9567 43.2711 36.9152 43.1123 36.8354C42.9535 36.7557 42.8159 36.6399 42.7105 36.4974C42.6052 36.3549 42.5351 36.1898 42.506 36.0154C42.4769 35.841 42.4895 35.6622 42.5429 35.4936C43.0574 33.8477 44.0883 32.4084 45.4849 31.3863C46.8816 30.3642 48.5706 29.8129 50.3052 29.8129C52.0397 29.8129 53.7288 30.3642 55.1254 31.3863C56.5221 32.4084 57.553 33.8477 58.0675 35.4936C58.1209 35.6622 58.1335 35.841 58.1044 36.0154C58.0753 36.1898 58.0052 36.3549 57.8999 36.4974C57.7945 36.6399 57.6569 36.7557 57.4981 36.8354C57.3393 36.9152 57.1639 36.9567 56.9859 36.9565H56.9882ZM20.4451 55.1245C20.3045 55.5719 20.2718 56.046 20.3499 56.5084C20.4279 56.9707 20.6144 57.4083 20.8943 57.7857C21.1742 58.1631 21.5396 58.4696 21.9609 58.6806C22.3823 58.8916 22.8477 59.001 23.3195 59H36.6832C37.1552 59.0014 37.6209 58.8923 38.0425 58.6815C38.4641 58.4706 38.8297 58.1641 39.1098 57.7866C39.3899 57.4091 39.5765 56.9714 39.6545 56.5088C39.7325 56.0463 39.6997 55.572 39.5587 55.1245C39.1041 53.6735 38.3218 52.3449 37.2715 51.2403C36.2212 50.1357 34.9307 49.2841 33.4986 48.7508C34.3797 48.0342 35.0162 47.0645 35.321 45.9745C35.6257 44.8845 35.5838 43.7275 35.201 42.6621C34.8181 41.5966 34.113 40.6749 33.1824 40.0232C32.2517 39.3715 31.141 39.0216 30.0025 39.0216C28.8639 39.0216 27.7532 39.3715 26.8226 40.0232C25.8919 40.6749 25.1869 41.5966 24.804 42.6621C24.4211 43.7275 24.3792 44.8845 24.684 45.9745C24.9888 47.0645 25.6253 48.0342 26.5064 48.7508C25.6149 49.0821 24.7759 49.5388 24.0148 50.1067C22.3266 51.3665 21.0792 53.1213 20.4485 55.1233L20.4451 55.1245ZM30.0013 48.1285C29.2809 48.1278 28.5768 47.9149 27.9782 47.5167C27.3795 47.1185 26.913 46.5529 26.6378 45.8914C26.3625 45.2298 26.2909 44.5021 26.4318 43.8001C26.5728 43.098 26.9201 42.4533 27.4297 41.9474C27.9394 41.4414 28.5886 41.097 29.2952 40.9576C30.0019 40.8182 30.7342 40.8901 31.3998 41.1642C32.0653 41.4383 32.6341 41.9023 33.0343 42.4975C33.4345 43.0928 33.6481 43.7925 33.6481 44.5084C33.6469 45.4687 33.2622 46.3893 32.5784 47.068C31.8947 47.7468 30.9678 48.1282 30.0013 48.1285ZM22.2356 55.677C22.744 54.0266 23.7737 52.5829 25.1724 51.5595C26.5712 50.5362 28.2644 49.9877 30.0013 49.9953C31.7373 49.9891 33.4292 50.5382 34.8267 51.5614C36.2242 52.5847 37.2532 54.0277 37.7614 55.677C37.8149 55.845 37.8277 56.0233 37.7987 56.1972C37.7698 56.3711 37.7 56.5357 37.5949 56.6778C37.4898 56.8198 37.3525 56.9351 37.1941 57.0145C37.0356 57.0938 36.8606 57.1348 36.6832 57.1342H23.3195C23.1417 57.1355 22.9661 57.095 22.8071 57.016C22.6481 56.937 22.5102 56.8217 22.4046 56.6796C22.299 56.5375 22.2288 56.3725 22.1996 56.1983C22.1704 56.024 22.1832 55.8454 22.2368 55.677H22.2356Z" fill="#122229"/>
</g>
<defs>
<clipPath id="clip0_25_703">
<rect width="60" height="58" fill="white" transform="translate(0 1)"/>
</clipPath>
</defs>
</svg>
